<?xml version="1.0" standalone="no"?>
<!DOCTYPE svg PUBLIC "-//W3C//DTD SVG 20010904//EN"
 "http://www.w3.org/TR/2001/REC-SVG-20010904/DTD/svg10.dtd">
<svg version="1.0" xmlns="http://www.w3.org/2000/svg"
 width="1024.000000pt" height="1024.000000pt" viewBox="0 0 1024.000000 1024.000000"
 preserveAspectRatio="xMidYMid meet">
<metadata>
Created by potrace 1.14, written by Peter Selinger 2001-2017
</metadata>
<g transform="translate(0.000000,1024.000000) scale(0.100000,-0.100000)"
fill="#000000" stroke="none">
<path d="M4805 10229 c-867 -65 -1694 -373 -2370 -883 -325 -244 -657 -576
-901 -901 -753 -999 -1051 -2296 -813 -3535 242 -1258 1007 -2341 2127 -3012
112 -67 500 -264 506 -256 2 1 -14 113 -35 248 -21 135 -52 376 -69 535 -44
414 -32 370 -115 427 -325 224 -659 551 -876 858 -264 373 -442 756 -550 1185
-309 1224 54 2507 957 3385 827 803 1958 1146 3099 940 556 -100 1100 -349
1560 -716 141 -113 426 -398 539 -539 694 -872 938 -1995 667 -3070 -125 -497
-346 -939 -674 -1350 -44 -55 -159 -179 -256 -276 -176 -175 -306 -286 -478
-406 -88 -61 -92 -66 -97 -106 -3 -23 -17 -154 -31 -292 -15 -137 -46 -378
-70 -535 -24 -157 -41 -287 -40 -289 6 -6 316 148 445 221 538 306 1023 737
1392 1234 738 996 1027 2253 803 3481 -89 483 -277 996 -520 1414 -209 359
-424 638 -720 935 -557 558 -1209 939 -1976 1154 -459 129 -1027 185 -1504
149z"/>
<path d="M4860 8629 c-683 -68 -1298 -357 -1775 -834 -893 -893 -1100 -2255
-514 -3375 76 -144 200 -334 309 -470 80 -100 352 -380 369 -380 5 0 18 28 31
63 92 256 265 489 478 646 l72 54 -78 81 c-462 482 -644 1113 -506 1756 84
391 304 766 607 1031 592 519 1441 625 2140 267 374 -192 667 -492 852 -872
75 -154 115 -269 149 -426 137 -638 -41 -1262 -497 -1746 l-87 -92 73 -53
c212 -157 385 -390 477 -646 13 -35 26 -63 31 -63 17 0 287 279 369 380 521
651 735 1470 599 2290 -120 724 -521 1380 -1114 1824 -398 298 -847 482 -1350
552 -134 18 -505 26 -635 13z"/>
<path d="M4985 6873 c-416 -58 -757 -324 -908 -708 -54 -137 -71 -236 -71
-405 0 -169 17 -268 71 -404 172 -433 583 -716 1043 -716 517 0 976 366 1092
871 29 126 31 355 4 479 -95 449 -460 797 -915 874 -87 15 -243 19 -316 9z"/>
<path d="M4925 3994 c-511 -35 -850 -196 -994 -473 -105 -202 -114 -413 -45
-1031 83 -746 310 -1931 407 -2130 39 -79 135 -183 211 -229 84 -51 234 -98
371 -117 163 -22 446 -15 590 16 244 52 413 172 492 350 89 198 321 1433 398
2120 81 724 52 952 -149 1167 -157 169 -368 262 -696 308 -112 16 -462 27
-585 19z"/>
</g>
</svg>
